<mxfile host="app.diagrams.net" modified="2024-01-24T13:10:13.617Z" agent="Mozilla/5.0 (Macintosh; Intel Mac OS X 10_15_7) AppleWebKit/537.36 (KHTML, like Gecko) Chrome/120.0.0.0 Safari/537.36" version="22.1.18" etag="QGGLHlKvaDhj_rOiLxRM" type="github">
  <diagram name="Page-1" id="UPetx1VU3ULfsRr5a1Ql">
    <mxGraphModel>
      <root>
        <mxCell id="0" />
        <mxCell id="1" parent="0" />
      </root>
    </mxGraphModel>
  </diagram>
</mxfile>
